<svg width="1440" height="920" viewBox="0 0 1440 920" fill="none" xmlns="http://www.w3.org/2000/svg">
<rect width="1440" height="308" fill="#006098"/>
<mask id="mask0_1_27606" style="mask-type:alpha" maskUnits="userSpaceOnUse" x="-480" y="294" width="2400" height="630">
<path d="M-480 294H1920V924H-480V294Z" fill="#EAF3F9"/>
</mask>
<g mask="url(#mask0_1_27606)">
<path d="M70.4644 712.053C804.112 1055.26 1672.54 867.411 2338.09 542.624C2080.78 387.475 1816.23 251.34 1544.17 138.836C1315.3 43.9962 1069.6 28.7459 859.475 93.0936C498.854 202.783 155.066 360.013 -167.149 553.647C-99.823 616.679 -22.6828 669.662 70.4644 712.053Z" fill="#51BAEA"/>
<path d="M1278.41 682.358C1512.06 872.637 1711.85 1086.98 1878.94 1316.82C2863.63 1122.49 3021.46 -498.385 2449.13 -1297.55C2480.35 -569.216 1678.7 65.2742 544.578 162.317C245.562 187.903 -49.4825 173.636 -324.791 125.221C-258.002 235.226 -171.173 350.572 -69.3938 464.639C199.055 454.369 464.863 458.437 726.226 479.821C941.92 498.057 1140.33 571.398 1278.41 682.358Z" fill="#006098"/>
<path d="M-257.976 137.889C286.703 649.121 1196.44 687.292 1974.31 543.977C1798.78 331.481 1607.9 135.32 1399.33 -40.1665C1223.96 -187.984 997.077 -264.058 768.526 -255.26C376.617 -240.872 -20.4868 -176.899 -413.311 -72.7813C-377.393 4.23135 -327.659 74.1103 -257.976 137.889Z" fill="#006098"/>
</g>
</svg>
