<?xml version="1.0" encoding="UTF-8"?>
<svg xmlns="http://www.w3.org/2000/svg" width="138" height="37" viewBox="0 0 138 37" fill="none">
  <path d="M112.405 31.7463L138 32.524L112.405 33.2705V31.7463ZM25.5952 31.7774L0 32.4579L25.5952 33.3055V31.7774Z" fill="#A4CD39"></path>
  <path d="M35.1708 34.2309L33.5301 28.7759H32.7788L31.1343 34.2309L29.4246 28.7759H28.4126L30.7318 35.8795H31.4869L33.1391 30.6966L34.7798 35.8795H35.5464L37.8656 28.7759H36.8843L35.1708 34.2309Z" fill="#A4CD39"></path>
  <path d="M44.0222 32.5629H47.5221V31.6181H44.0222V29.7207H47.9897V28.7759H43.0869V35.8795H47.9897V34.9308H44.0222V32.5629Z" fill="#A4CD39"></path>
  <path d="M54.5252 28.7759H53.5898V35.8795H58.025V34.9308H54.5252V28.7759Z" fill="#A4CD39"></path>
  <path d="M64.3269 28.7759H63.3916V35.8795H67.8268V34.9308H64.3269V28.7759Z" fill="#A4CD39"></path>
  <path d="M77.8628 34.0403L74.1177 28.7642L74.0947 28.7758H73.1938V35.8794H74.1292V30.3894L78.066 35.8794H78.7982V28.7758H77.8628V34.0403Z" fill="#A4CD39"></path>
  <path d="M85.5638 32.5629H89.0675V31.6181H85.5638V29.7207H89.5313V28.7759H84.6323V35.8795H89.5313V34.9308H85.5638V32.5629Z" fill="#A4CD39"></path>
  <path d="M97.386 31.7852C97.1014 31.723 96.822 31.6385 96.5503 31.5324C96.3729 31.4667 96.2072 31.3721 96.0597 31.2525C95.9579 31.1674 95.8789 31.0578 95.8297 30.9337C95.7848 30.7998 95.7627 30.6591 95.7645 30.5176C95.7675 30.3837 95.7962 30.2517 95.8488 30.1288C95.9055 30.006 95.9879 29.8972 96.0903 29.81C96.2038 29.7132 96.3337 29.6382 96.4737 29.5884C96.6388 29.5304 96.8125 29.5015 96.9873 29.5029C97.2921 29.5022 97.5942 29.5616 97.8767 29.6778C98.1901 29.8131 98.4781 30.0025 98.7277 30.2377L98.8235 30.3232L99.364 29.5223L99.2873 29.4562C98.9812 29.1806 98.633 28.9573 98.2562 28.7952C97.8568 28.6434 97.4328 28.5696 97.0065 28.5775C96.711 28.5739 96.4174 28.6253 96.1401 28.7291C95.8855 28.8243 95.6513 28.9682 95.4502 29.1529C95.2521 29.3313 95.0951 29.5516 94.9901 29.7983C94.8807 30.0561 94.8258 30.3342 94.8292 30.6149C94.8219 30.8894 94.8675 31.1628 94.9633 31.4197C95.0537 31.6514 95.1953 31.8589 95.3773 32.0262C95.5832 32.2083 95.8178 32.3542 96.0712 32.4578C96.382 32.5859 96.7025 32.6886 97.0295 32.765C97.301 32.826 97.5676 32.9079 97.8268 33.0099C97.9969 33.0729 98.1551 33.1649 98.2945 33.2821C98.3931 33.3653 98.4695 33.4722 98.5168 33.5931C98.5601 33.7181 98.5822 33.8495 98.582 33.982C98.5873 34.1294 98.5593 34.2761 98.5002 34.4108C98.441 34.5456 98.3523 34.6649 98.2408 34.7596C97.9721 34.9745 97.6358 35.0836 97.294 35.0667C96.9106 35.0735 96.5306 34.9924 96.1823 34.8296C95.8224 34.6454 95.4958 34.4009 95.2163 34.1064L95.1282 34.0131L94.5493 34.7907L94.6183 34.8607C94.9689 35.2254 95.3854 35.5184 95.845 35.7238C96.2949 35.9162 96.7789 36.0128 97.2672 36.0077C97.5723 36.0105 97.8756 35.9605 98.1642 35.8599C98.4297 35.7691 98.6737 35.6235 98.881 35.4322C99.0801 35.2439 99.2393 35.0163 99.3487 34.7635C99.4629 34.4892 99.5203 34.1941 99.5173 33.8964C99.5299 33.6437 99.4885 33.3913 99.3959 33.1564C99.3033 32.9215 99.1616 32.7097 98.9807 32.5356C98.5177 32.1568 97.9701 31.8992 97.386 31.7852Z" fill="#A4CD39"></path>
  <path d="M108.955 32.5317C108.489 32.1539 107.938 31.8976 107.352 31.7852C107.068 31.7224 106.789 31.638 106.517 31.5325C106.34 31.4649 106.175 31.3705 106.026 31.2525C105.925 31.1676 105.847 31.0579 105.8 30.9337C105.755 30.7998 105.733 30.6591 105.735 30.5177C105.736 30.3836 105.765 30.2512 105.819 30.1289C105.873 30.0055 105.954 29.8964 106.057 29.81C106.17 29.7133 106.3 29.6382 106.44 29.5884C106.606 29.5304 106.781 29.5015 106.957 29.5029C107.261 29.5019 107.562 29.5613 107.843 29.6779C108.157 29.8113 108.446 30.001 108.694 30.2377L108.79 30.3233L109.334 29.5223L109.257 29.4562C108.95 29.1805 108.6 28.9573 108.222 28.7953C107.823 28.6432 107.399 28.5693 106.973 28.5775C106.677 28.5747 106.384 28.626 106.106 28.7292C105.853 28.8261 105.619 28.9698 105.416 29.153C105.221 29.3336 105.064 29.5534 104.956 29.7984C104.847 30.0561 104.792 30.3343 104.795 30.6149C104.79 30.8893 104.836 31.1623 104.93 31.4197C105.02 31.6524 105.163 31.8602 105.347 32.0263C105.552 32.21 105.787 32.3561 106.041 32.4579C106.351 32.5865 106.67 32.6892 106.996 32.765C107.269 32.8261 107.536 32.908 107.797 33.01C107.966 33.0747 108.124 33.1666 108.265 33.2821C108.362 33.3658 108.437 33.4727 108.483 33.5932C108.528 33.7177 108.55 33.8494 108.548 33.982C108.554 34.1294 108.526 34.2761 108.466 34.4109C108.407 34.5456 108.319 34.6649 108.207 34.7596C107.938 34.9745 107.602 35.0836 107.26 35.0668C106.878 35.0735 106.499 34.9924 106.152 34.8296C105.793 34.6455 105.466 34.401 105.186 34.1064L105.094 34.0131L104.516 34.7907L104.588 34.8607C104.938 35.2253 105.353 35.5184 105.811 35.7239C106.261 35.9155 106.745 36.0121 107.233 36.0077C107.54 36.0099 107.844 35.9599 108.134 35.8599C108.399 35.77 108.642 35.6243 108.847 35.4323C109.049 35.2461 109.208 35.018 109.315 34.7635C109.429 34.4893 109.487 34.1941 109.484 33.8965C109.497 33.6438 109.457 33.3912 109.365 33.1557C109.274 32.9203 109.134 32.7075 108.955 32.5317Z" fill="#A4CD39"></path>
  <path d="M47.1924 12.5159C47.1924 12.35 47.1924 12.1829 47.1924 12.0144C47.6823 11.4911 48.2721 11.0744 48.9258 10.7896C49.5796 10.5049 50.2836 10.358 50.9951 10.358C51.0794 10.358 51.1599 10.358 51.2442 10.358C49.4079 11.872 48.2354 14.0603 47.9821 16.4468C47.4577 15.2047 47.189 13.8671 47.1924 12.5159ZM48.2581 9.05163C49.5346 8.79113 50.5083 7.51972 51.0871 6.2522C50.6123 6.28529 50.1414 6.36207 49.6803 6.48159C49.292 6.58514 48.9549 6.83014 48.7334 7.16979C48.3534 7.76187 48.0409 8.3958 47.8019 9.05941C47.9524 9.09031 48.1076 9.09031 48.2581 9.05941V9.05163Z" fill="#006098"></path>
  <path d="M58.0634 9.31976C57.2704 8.97877 56.4178 8.80291 55.5564 8.80264C53.9908 8.81401 52.4751 9.36212 51.2554 10.3579C51.1711 10.3579 51.0906 10.3579 51.0063 10.3579C50.2948 10.3579 49.5908 10.5047 48.937 10.7895C48.2833 11.0742 47.6935 11.4909 47.2036 12.0142C47.2521 11.0039 47.4538 10.0072 47.8016 9.05926C47.9521 9.09015 48.1072 9.09015 48.2578 9.05926C49.5343 8.79875 50.5079 7.52734 51.0868 6.25982C51.2669 6.25982 51.4433 6.24038 51.6234 6.24038C54.0499 6.2326 56.3039 7.39126 58.0634 9.31976ZM50.1706 4.65403C50.9028 3.84919 52.9344 2.85772 53.1108 2.32116C53.2871 1.7846 52.8386 -0.244986 51.0024 0.0271816C49.1663 0.299349 49.1433 3.9775 50.1706 4.66958V4.65403Z" fill="#A4CD39"></path>
  <path d="M48.733 7.16968C48.353 7.76176 48.0405 8.39569 47.8015 9.0593C46.0113 8.75603 45.3941 4.32748 46.2451 1.99072C46.2762 2.95744 46.6798 3.87324 47.3694 4.54136C48.0589 5.20949 48.9793 5.57662 49.9328 5.56389C50.4585 5.5607 50.9788 5.45648 51.4661 5.25673C51.3619 5.59736 51.2338 5.92999 51.0828 6.25209C50.608 6.28518 50.1371 6.36196 49.676 6.48148C49.2891 6.58589 48.9535 6.8308 48.733 7.16968ZM52.5663 10.5951C52.1455 10.4657 51.7101 10.3913 51.2706 10.3735C49.4278 11.8789 48.2457 14.0617 47.9816 16.4467C47.397 15.0463 47.1348 13.529 47.215 12.0104C46.8524 12.3952 46.5488 12.8329 46.3141 13.309C46.4322 15.0993 46.9981 16.8295 47.9586 18.3363C48.3067 18.8798 48.7059 19.3876 49.1508 19.8527C48.9862 19.2565 48.8872 18.6436 48.8556 18.0253C48.6601 14.9731 50.2548 11.9326 52.551 10.6145L52.5663 10.5951Z" fill="#51BAEA"></path>
  <path d="M2.17334 8.61206H11.3043V10.0079H3.77567V14.9458H10.5338V16.3222H3.77567V21.3767H11.4117V22.7726H2.17334V8.61206Z" fill="#006098"></path>
  <path d="M15.0269 8.61206H16.6944L21.2484 16.1978L25.8254 8.61206H27.4929V22.7764H25.8905V11.3648L21.2714 18.9311H21.2062L16.6062 11.3648V22.7764H15.0269V8.61206Z" fill="#006098"></path>
  <path d="M31.8169 8.61206H36.3326C39.5181 8.61206 41.5919 10.3112 41.5919 13.1028V13.1456C41.5919 16.1394 39.1961 17.7569 36.1371 17.7763H33.4231V22.7764H31.8169V8.61206ZM36.1831 16.3883C38.5137 16.3883 39.9666 15.113 39.9666 13.1689V13.1495C39.9666 11.0849 38.5137 9.99233 36.2444 9.99233H33.4231V16.3883H36.1831Z" fill="#006098"></path>
  <path d="M59.4165 8.61215H61.1492L64.6797 20.2765L68.1642 8.57715H69.5327L73.0402 20.2765L76.5707 8.61215H78.1998L73.7302 22.8776H72.3195L68.812 11.4427L65.3045 22.8776H63.8938L59.4165 8.61215Z" fill="#006098"></path>
  <path d="M81.5771 8.61206H90.7082V10.0079H83.1833V14.9458H89.9415V16.3222H83.1833V21.3767H90.8193V22.7726H81.581L81.5771 8.61206Z" fill="#006098"></path>
  <path d="M94.4263 8.61206H99.5399C101.25 8.61206 102.607 9.09807 103.473 9.92624C103.859 10.3021 104.163 10.7557 104.366 11.2579C104.568 11.7602 104.665 12.2999 104.65 12.8423V12.8812C104.65 15.1285 103.174 16.4816 101.1 16.9676L105.121 22.7764H103.205L99.4403 17.2709H96.0401V22.7764H94.4339L94.4263 8.61206ZM99.2601 15.8945C101.698 15.8945 103.047 14.7281 103.047 12.9434V12.9006C103.047 11.0382 101.679 10.0079 99.4326 10.0079H96.0324V15.8945H99.2601Z" fill="#006098"></path>
  <path d="M55.5834 9.7358C54.9002 9.73841 54.2228 9.86345 53.5824 10.1052C54.5721 10.5696 55.4205 11.2956 56.0385 12.2069C56.6565 13.1183 57.0215 14.1814 57.0952 15.285C57.1689 16.3886 56.9485 17.492 56.4573 18.4795C55.966 19.467 55.222 20.3024 54.303 20.898C53.3841 21.4935 52.3241 21.8275 51.2342 21.8647C50.1443 21.902 49.0645 21.6412 48.1081 21.1097C47.1518 20.5782 46.3539 19.7956 45.7982 18.8438C45.2426 17.8921 44.9495 16.8063 44.9498 15.7002C44.9484 14.3434 45.3921 13.0248 46.2109 11.952C46.2474 11.1822 46.3643 10.4184 46.5598 9.67358C45.3178 10.6228 44.4005 11.9431 43.9369 13.4486C43.4732 14.9542 43.4865 16.5693 43.975 18.0667C44.4634 19.5642 45.4023 20.8687 46.6598 21.7967C47.9172 22.7248 49.4298 23.2296 50.9848 23.2404C52.5398 23.2511 54.059 22.7671 55.3288 21.8564C56.5985 20.9458 57.5548 19.6544 58.0632 18.1638C58.5717 16.6732 58.6066 15.0584 58.1632 13.5466C57.7197 12.0348 56.8202 10.7021 55.5911 9.7358H55.5834Z" fill="#006098"></path>
  <path d="M108.284 8.61206H110.864L114.697 15.1285L118.531 8.61206H121.134V22.7764H118.676V12.7607L114.709 19.316H114.644L110.695 12.7996V22.7764H108.284V8.61206Z" fill="#A4CD39"></path>
  <path d="M125.104 8.61206H134.515V10.735H127.558V14.5803H133.726V16.7071H127.558V20.6496H134.623V22.7764H125.104V8.61206Z" fill="#A4CD39"></path>
</svg>
